inDegrees=no
num_controls=7
num_derivatives=13
num_iterations=97
num_multipliers=7
num_parameters=0
num_slacks=7
num_states=26
objective=0.444958
objective_accelerations=0.057433
objective_balance=0.003356
objective_effort=0.022890
objective_height=0.355794
objective_ligament=0.005485
solver_duration=1435.543045
status=Solve_Succeeded
success=true
DataType=double
version=3
OpenSimVersion=4.5
endheader
time	/jointset/ground_pelvis/pelvis_tilt/value	/jointset/ground_pelvis/pelvis_tx/value	/jointset/ground_pelvis/pelvis_ty/value	/jointset/hip_l/hip_flexion_l/value	/jointset/hip_l/hip_adduction_l/value	/jointset/hip_l/hip_rotation_l/value	/jointset/back/lumbar_extension/value	/jointset/patellofemoral_l/patellar_flexion_l/value	/jointset/knee_l/knee_flexion_l/value	/jointset/knee_l/knee_adduction_l/value	/jointset/knee_l/knee_rotation_l/value	/jointset/ankle_l/ankle_angle_l/value	/jointset/subtalar_l/subtalar_angle_l/value	/jointset/ground_pelvis/pelvis_tilt/speed	/jointset/ground_pelvis/pelvis_tx/speed	/jointset/ground_pelvis/pelvis_ty/speed	/jointset/hip_l/hip_flexion_l/speed	/jointset/hip_l/hip_adduction_l/speed	/jointset/hip_l/hip_rotation_l/speed	/jointset/back/lumbar_extension/speed	/jointset/patellofemoral_l/patellar_flexion_l/speed	/jointset/knee_l/knee_flexion_l/speed	/jointset/knee_l/knee_adduction_l/speed	/jointset/knee_l/knee_rotation_l/speed	/jointset/ankle_l/ankle_angle_l/speed	/jointset/subtalar_l/subtalar_angle_l/speed	/forceset/tau_hip_flexion_l	/forceset/tau_hip_adduction_l	/forceset/tau_hip_rotation_l	/forceset/tau_knee_flexion_l	/forceset/tau_ankle_angle_l	/forceset/tau_subtalar_angle_l	/forceset/tau_lumbar_extension	lambda_cid13_p0	lambda_cid13_p1	lambda_cid13_p2	lambda_cid13_p3	lambda_cid13_p4	lambda_cid13_p5	lambda_cid14_p0	/jointset/ground_pelvis/pelvis_tilt/accel	/jointset/ground_pelvis/pelvis_tx/accel	/jointset/ground_pelvis/pelvis_ty/accel	/jointset/hip_l/hip_flexion_l/accel	/jointset/hip_l/hip_adduction_l/accel	/jointset/hip_l/hip_rotation_l/accel	/jointset/back/lumbar_extension/accel	/jointset/patellofemoral_l/patellar_flexion_l/accel	/jointset/knee_l/knee_flexion_l/accel	/jointset/knee_l/knee_adduction_l/accel	/jointset/knee_l/knee_rotation_l/accel	/jointset/ankle_l/ankle_angle_l/accel	/jointset/subtalar_l/subtalar_angle_l/accel	gamma_cid13_p0	gamma_cid13_p1	gamma_cid13_p2	gamma_cid13_p3	gamma_cid13_p4	gamma_cid13_p5	gamma_cid14_p0
1.5	-0.363501509205416	-0.01897594209258505	0.7615072666575194	1.100475569552973	-0.4356263533034802	-0.2078624411784364	-0.2240922660297473	0.8133249786675459	0.8133249786676213	-0.1303310437546314	-0.1440344386894327	0.1394238512172953	-0.01380384699429962	0.6627848685414812	0.2683281383833565	0.5359447558085683	-2.44935790671196	0.2103800414644611	-0.7217948785781662	0.3200604620482752	-2.037303185659833	-2.037303185659793	-0.1320801580754244	0.1391632583872127	-0.4185237010335072	0.02632711094748503	-0.1742625168464633	0.03929779010541527	-0.00803370934025845	-0.2014621436171594	0.03548539352170909	0.03611581938502425	0.1681078877118091	-20.81138268684549	-14.79631065659528	5.170043461863615	-5.870946827689656	-520.0645170641124	-54.65264503062718	-24.51404042755081	0.6969818843060956	0.6759066190210655	-0.5224117057096134	-1.301767859213941	0.7163428557897786	-0.1997194784193256	1.456625966195049	-1.363120826646582	-1.363120826646597	0.1338449427214652	0.2207274670549839	-0.5660438392206557	0.4891588858223641	5.010187333799126e-07	4.312624046312375e-07	-3.013215999564706e-06	-1.236515630286202e-07	7.321584508274695e-07	-1.132128063511032e-08	4.656440854704402e-07
1.51	-0.3568388736723064	-0.01625917888839698	0.766839480758247	1.075918779680805	-0.4334883139053455	-0.2150887018671061	-0.2208202940242298	0.7928862897701843	0.7928862897701948	-0.1316485450859761	-0.1426329544525043	0.1352105305681319	-0.01351800626289876	0.6696415233452482	0.2749834958234417	0.5303791094074749	-2.461637104367172	0.2172021512199016	-0.7233286214982155	0.3342835282985393	-2.050133645657332	-2.050133645657501	-0.1314335868882538	0.1411328700054468	-0.424067808511003	0.03084157558118927	-0.1681893265828909	0.03855646739335017	-0.007666183523040419	-0.1984397375871648	0.03551957557896653	0.03531266680637089	0.1631291985327453	-20.58240423720819	-14.49859129026257	5.135139767712944	-5.668123849155922	-515.901631029407	-54.74013111130275	-25.43950835705537	0.6649269674086764	0.6542227960529666	-0.5913584569957968	-1.136514481202001	0.6613817223583243	-0.1105241410782116	1.397585340933629	-1.197949811521955	-1.197949811553289	0.02817567729066014	0.1845775695335684	-0.5376682182987041	0.4326975423960845	4.560842591432117e-07	9.306346404361595e-07	-2.245413363932554e-06	3.545638353406191e-08	6.643700260171918e-07	1.233060078093685e-07	4.336992724265292e-07
1.52	-0.3501106876533601	-0.01347708761189783	0.7721124949250264	1.051250094079581	-0.4312828060722695	-0.2223263644734341	-0.2174076036789108	0.7723283080278002	0.7723283080277479	-0.13295995821132	-0.1412118741873434	0.1309439540409362	-0.01318699942711053	0.6758949657088854	0.281393752845571	0.5241047690189111	-2.471737052523465	0.2238737284528306	-0.7240752621094868	0.3482041300084627	-2.061161754663647	-2.061161754664025	-0.1308625168780529	0.143082464036719	-0.429174876639886	0.03536033182495801	-0.1621161363193011	0.03781514468127861	-0.007298657705713314	-0.1954173315571811	0.03555375763621811	0.03450951422770763	0.1581505093537035	-20.356583886575	-14.20347863819811	5.104262122955246	-5.496306072622551	-511.8019097252843	-54.87930095113072	-26.36439629325465	0.5763393962801659	0.6268865354298661	-0.6641505032036891	-0.8659179594301354	0.6862363512874786	-0.04229901666374236	1.396133058126906	-1.002650628409808	-1.00265062840988	0.1187447073275442	0.2167239496625845	-0.478635969498094	0.4900172078352577	4.377423381280476e-07	1.254174762836462e-06	-1.827218822465559e-06	1.298610858053902e-07	6.423372849676966e-07	2.270167429350078e-07	4.209403426104027e-07
1.53	-0.3433230066509451	-0.01063217582646307	0.7773193372519741	1.026491122375336	-0.4290114309228881	-0.2295682827876381	-0.2138574477531	0.7516689519369317	0.7516689519368671	-0.1342657849655888	-0.1397718477293775	0.1266284661433857	-0.01281088612605567	0.6815297724517704	0.287541156760702	0.5171541256331335	-2.479688769418652	0.2303728847642595	-0.7242088963138917	0.3617630524012275	-2.070406434782444	-2.070406434782796	-0.1302956851341894	0.1449057487795735	-0.4338459428267626	0.03986315515749761	-0.1559310025538254	0.03641118855863703	-0.006947358802331945	-0.1927456087425783	0.03571502219370249	0.03389924878506827	0.1530654406763835	-20.10186381904096	-14.00355096486821	5.095816050523248	-5.309104077263894	-507.9231109822711	-55.29146022210814	-27.28845208861641	0.5403511319330651	0.6015840483108016	-0.7268202366755414	-0.7044913504840847	0.6275326088075939	0.01642952525201048	1.326171416965762	-0.8400089243829151	-0.8400089243789022	0.0268999949603918	0.1621891731538945	-0.4497823437866904	0.4305097770529882	4.476550049107661e-07	1.390893264744359e-06	-1.780482881049041e-06	1.555185910171556e-07	6.689199579140328e-07	2.978786401593805e-07	4.285664137237971e-07
1.54	-0.3364823176173724	-0.007727206656125771	0.7824534133489819	1.001663694942961	-0.4266759087428427	-0.2368084724143679	-0.2101736226859375	0.7309262226007289	0.7309262226006378	-0.1355656938850416	-0.1383141767366427	0.1222685795038664	-0.01238972561545743	0.6864965719402668	0.2934052298260802	0.509551523030925	-2.485428198150687	0.2367031345851622	-0.7237295246150588	0.3749379582785698	-2.077836403731974	-2.077836403732299	-0.1296789499085365	0.1466113709847059	-0.4380546250338094	0.04436977373362466	-0.1497458687882924	0.03500723243601717	-0.006596059899154418	-0.1900738859279532	0.03587628675119053	0.03328898334245597	0.1479803719991098	-19.84870358464496	-13.80629284167549	5.091157990162892	-5.158099144933522	-504.0847821234954	-55.75324965827433	-28.21215070841813	0.4427379454024748	0.570220365479311	-0.7945423464898305	-0.4234603267998858	0.6524550531822675	0.08030216398383333	1.319329755042391	-0.6397083945564748	-0.6397083945564791	0.128725403685423	0.1931914421181257	-0.3861591735321377	0.4907762565527418	4.528000330967683e-07	1.516005991621141e-06	-1.725005077161289e-06	1.793999521668029e-07	6.9209329357851e-07	3.638090726898543e-07	4.327726079596887e-07
1.55	-0.3295952584199383	-0.00476511638799844	0.7875082967896438	0.9767898491010084	-0.4242780169782201	-0.2440411619425537	-0.2063601960615299	0.7101182745934524	0.7101182745934328	-0.1368591287961064	-0.1368402682434059	0.1178688755254585	-0.01192358609640881	0.6908017760299909	0.2989544534801593	0.5013233004202874	-2.488962152549026	0.2428386613811999	-0.7227045423899582	0.3876670485222395	-2.083437616793623	-2.08343761679412	-0.1290062721525798	0.1481531105231418	-0.4418080163711383	0.04885096253266012	-0.1436676074335613	0.03416597462185143	-0.006246888198233643	-0.1873507045953624	0.03604305440358649	0.03203143035932444	0.1429383240560166	-19.62689586962518	-13.3054448570652	5.018699239607892	-4.815149402786608	-500.4589759782467	-55.59746078425554	-29.13656854765783	0.4073975817049388	0.5385604905261054	-0.8520975144882477	-0.261520330424101	0.5886080147014559	0.1295761203292866	1.237650946913749	-0.4730772596438865	-0.4730772596695464	0.03701341402887896	0.1317230761059978	-0.3581511374824735	0.4256343863545213	4.524519124648152e-07	1.627746847266421e-06	-1.659455127382768e-06	2.012348864622704e-07	7.113384797660634e-07	4.240576002469231e-07	4.330385092715015e-07
1.56	-0.322668549993417	-0.001749276458299463	0.7924778709449721	0.9518920322482611	-0.421819868641259	-0.2512604056747793	-0.202421888077108	0.6892637645560182	0.6892637645560775	-0.1381457420390955	-0.135351530781528	0.1134339932289471	-0.01141286585041467	0.6944264177576196	0.3041551621404093	0.4924896659641438	-2.49022240031029	0.2487544490527167	-0.7210403654226155	0.3999142302812864	-2.087148809762259	-2.087148809762926	-0.128314616297501	0.1495771647175657	-0.4450902886544359	0.05328591912271802	-0.1375893460788099	0.03332471680768148	-0.005897716497159012	-0.1846275232627862	0.03620982205597698	0.03077387737618353	0.1378962761129467	-19.40594721554981	-12.8096038885162	4.952930936568602	-4.513397615811994	-496.8560032286433	-55.49172141893407	-30.06171319737542	0.306625472983399	0.500517366713479	-0.9156247155909889	0.03128100061508651	0.6085072282780957	0.2081411124322731	1.222948058117828	-0.2617043759535843	-0.2617043759535835	0.1325210235098455	0.1696543733157283	-0.2919353627258783	0.4815298147572245	4.264205024055475e-07	1.7653730843721e-06	-1.462407995630603e-06	2.480134330647259e-07	6.778077115629639e-07	4.6381004304965e-07	4.208381988725873e-07
1.57	-0.3157091129250571	0.001316801640979557	0.7973561495897875	0.9269932123553196	-0.419303578558102	-0.2584607776016388	-0.198363477971583	0.6683819697695721	0.6683819697695494	-0.1394244480794941	-0.133849790449989	0.1089689025524439	-0.0108577500460875	0.6973439506267278	0.3089983389077994	0.4830756819153988	-2.489164506491361	0.2544588480886791	-0.7189257020914572	0.4116774835215467	-2.088887819879247	-2.088887819879837	-0.1274333108246829	0.1507546393436366	-0.4478412834575168	0.0577261916796386	-0.1315082705273889	0.03162853568603748	-0.00558017991209107	-0.1821920672320748	0.03638728836287635	0.02991886147533776	0.1328536853744828	-19.19138640061198	-12.49835437952444	4.929027347736422	-4.229082310230209	-493.5536038515721	-55.84727085816824	-30.97246302894497	0.2667466351568841	0.4669741818617383	-0.9677382083111812	0.1995959463368359	0.5445483684061584	0.22971714712348	1.139467861639585	-0.08172559414307196	-0.08172559413140063	0.06522662749402752	0.0891237915918268	-0.2536278370764894	0.4233982605905704	3.682849805621371e-07	1.935356048303279e-06	-1.100989386411384e-06	3.259714950509162e-07	5.783070003715492e-07	4.779423799094499e-07	3.930551238352647e-07
1.58	-0.308724014639749	0.004429462777954528	0.8021375978023565	0.9021162818753328	-0.4167316160591543	-0.2656366852544539	-0.1941901445527225	0.647492439629041	0.6474924396289367	-0.1406944828015012	-0.1323368094153229	0.1044789126683145	-0.01025860705930487	0.6995586611471294	0.3134717696795996	0.4731235795148541	-2.48584451772023	0.259888932210674	-0.7161475106136651	0.4228988929481831	-2.088695880579103	-2.088695880579615	-0.1265803526188148	0.151825305343269	-0.4500701301796902	0.06209135561380284	-0.1254271949759274	0.02993235456439971	-0.005262643327013128	-0.1797566112013617	0.03656475466977425	0.02906384557449838	0.1278110946360561	-18.98457505252852	-12.18841192687441	4.908375831334533	-3.951794253446125	-490.3726261688553	-56.25537832774913	-31.86069171046653	0.1660610032420514	0.4265681675954952	-1.023248385950904	0.4836999910555306	0.553644245484606	0.3408467417590093	1.114579295393033	0.1244855074726265	0.1244855074726393	0.1268515701198376	0.1482926480279962	-0.1875057465444032	0.466508090205949	3.2059201257235e-07	2.060846217580795e-06	-8.240723035093157e-07	3.827087106763684e-07	5.021328349083777e-07	4.892857597182701e-07	3.694728189868669e-07
1.59	-0.3017204241909914	0.0075849064663798	0.8068169221527512	0.8772841336827965	-0.4141066252989543	-0.2727819656160649	-0.1899072675853729	0.6266146499996939	0.6266146499996775	-0.1419555838777909	-0.1308138851499434	0.0999692995328227	-0.00961601296408787	0.7010363971361462	0.3175444872786236	0.4626618177888771	-2.480194857036788	0.2650621522962641	-0.712802231282986	0.4335791501106275	-2.08653259010649	-2.086532590106684	-0.1256364782878206	0.1527441427988931	-0.4517666099195544	0.06641461120528408	-0.1195380440681806	0.028578269733193	-0.004966150557306351	-0.1771218521466127	0.03657002819735257	0.0278314033597169	0.1228967696178841	-18.86067987828275	-11.69401441100402	4.851439136765031	-3.516336870934196	-487.4398965439887	-56.30083066392067	-32.72082401657117	0.1201478179268718	0.3868369061540116	-1.06947476501354	0.6641144930796021	0.4918881357933207	0.3476210408631893	1.030146364989724	0.311600907807553	0.311600907855053	0.07899810344003835	0.06119355806097468	-0.1477636552052903	0.4130275432646286	2.870710819553364e-07	2.125953308399773e-06	-6.6183586346623e-07	4.106462062408202e-07	4.57616124362106e-07	4.968441263864755e-07	3.515915593948667e-07
